{"title":"Horrid Henry Goes To The Movies 2011 DVDRip XViD DTRG","uid":6640253,"size":964543049,"categoryP":"video","categoryS":"movies","magnet":"?xt=urn:btih:193efbb1ed9d256f78d8190c00e913761c5a2cf3&amp;dn=Horrid+Henry+Goes+To+The+Movies+2011+DVDRip+XViD+DTRG&amp;tr=udp%3A%2F%2Ftracker.openbittorrent.com%3A80&amp;tr=udp%3A%2F%2Fopen.demonii.com%3A1337&amp;tr=udp%3A%2F%2Ftracker.coppersurfer.tk%3A6969&amp;tr=udp%3A%2F%2Fexodus.desync.com%3A6969","seeders":1,"leechers":0,"uploader":"SAFCukO09","files":3,"time":1314717097,"description":"Video\nID : 0\nFormat : MPEG-4 Visual\nFormat profile : Advanced Simple@L5\nFormat settings, BVOP : 2\nFormat settings, QPel : No\nFormat settings, GMC : No warppoints\nFormat settings, Matrix : Default (H.263)\nMuxing mode : Packed bitstream\nCodec ID : XVID\nCodec ID/Hint : XviD\nDuration : 1h 9mn\nBit rate : 1 626 Kbps\nWidth : 608 pixels\nHeight : 336 pixels\nDisplay aspect ratio : 16:9\nFrame rate : 25.000 fps\nColor space : YUV\nChroma subsampling : 4:2:0\nBit depth : 8 bits\nScan type : Progressive\nCompression mode : Lossy\nBits/(Pixel*Frame) : 0.318\nStream size : 806 MiB (88%)\nWriting library : XviD 64\n\nAudio\nID : 1\nFormat : AC-3\nFormat/Info : Audio Coding 3\nMode extension : CM (complete main)\nCodec ID : 2000\nDuration : 1h 9mn\nBit rate mode : Constant\nBit rate : 224 Kbps\nChannel(s) : 2 channels\nChannel positions : Front: L R\nSampling rate : 48.0 KHz\nBit depth : 16 bits\nCompression mode : Lossy\nStream size : 111 MiB (12%)\nAlignment : Aligned on interleaves\nInterleave, duration : 481 ms (12.02 video frames)\nInterleave, preload duration : 960 ms\n\n\n\n\n\n\n &lt;a href=&quot;\nhttp://www.play.com/DVD/DVD/4-/18652089/Horrid-Henry-Goes-To-The-Movies/Product.html&quot; rel=&quot;nofollow&quot; target=&quot;_NEW&quot;&gt;\nhttp://www.play.com/DVD/DVD/4-/18652089/Horrid-Henry-Goes-To-The-Movies/Product.html&lt;/a&gt;\n\n\n\n\n\n\n\n\n\n","torrent":{"xt":"urn:btih:193efbb1ed9d256f78d8190c00e913761c5a2cf3","amp;dn":"Horrid+Henry+Goes+To+The+Movies+2011+DVDRip+XViD+DTRG","amp;tr":["udp%3A%2F%2Ftracker.openbittorrent.com%3A80","udp%3A%2F%2Fopen.demonii.com%3A1337","udp%3A%2F%2Ftracker.coppersurfer.tk%3A6969","udp%3A%2F%2Fexodus.desync.com%3A6969"],"infoHash":"193efbb1ed9d256f78d8190c00e913761c5a2cf3","infoHashBuffer":{"type":"Buffer","data":[25,62,251,177,237,157,37,111,120,216,25,12,0,233,19,118,28,90,44,243]},"announce":[],"urlList":[]}}